<?xml version="1.0" encoding="UTF-8"?>
<svg width="65px" height="25px" viewBox="0 0 65 25" version="1.1" xmlns="http://www.w3.org/2000/svg" xmlns:xlink="http://www.w3.org/1999/xlink">
    <title>ç¼–ç»„ 4</title>
    <defs>
        <path d="M13.5416667,12.5 C16.4181497,12.5 18.75,14.8318503 18.75,17.7083333 L18.75,17.7083333 L18.75,19.7916667 C18.75,20.3669633 18.2836299,20.8333333 17.7083333,20.8333333 C17.1330367,20.8333333 16.6666667,20.3669633 16.6666667,19.7916667 L16.6666667,19.7916667 L16.6666667,17.7083333 C16.6666667,15.9824435 15.2675565,14.5833333 13.5416667,14.5833333 L13.5416667,14.5833333 L5.20833333,14.5833333 C3.48244349,14.5833333 2.08333333,15.9824435 2.08333333,17.7083333 L2.08333333,17.7083333 L2.08333333,19.7916667 C2.08333333,20.3669633 1.61696328,20.8333333 1.04166667,20.8333333 C0.466370052,20.8333333 0,20.3669633 0,19.7916667 L0,19.7916667 L0,17.7083333 C0,14.8318503 2.33185026,12.5 5.20833333,12.5 L5.20833333,12.5 Z M9.375,8.8817842e-16 C12.2514831,8.8817842e-16 14.5833333,2.33185026 14.5833333,5.20833333 C14.5833333,8.08481641 12.2514831,10.4166667 9.375,10.4166667 C6.49851693,10.4166667 4.16666667,8.08481641 4.16666667,5.20833333 C4.16666667,2.33185026 6.49851693,8.8817842e-16 9.375,8.8817842e-16 Z M9.375,2.08333333 C7.64911016,2.08333333 6.25,3.48244349 6.25,5.20833333 C6.25,6.93422318 7.64911016,8.33333333 9.375,8.33333333 C11.1008898,8.33333333 12.5,6.93422318 12.5,5.20833333 C12.5,3.48244349 11.1008898,2.08333333 9.375,2.08333333 Z" id="path-1"></path>
        <path d="M23.9583333,0 C23.9647821,0 23.9712172,5.86001127e-05 23.977638,0.000175296885 C24.0028432,0.000646875293 24.0278342,0.00200721072 24.0527594,0.00426250366 C24.0701831,0.00579138738 24.0872651,0.0077589923 24.1042164,0.0101345734 C24.1235223,0.0129070415 24.1434795,0.0162921369 24.1633433,0.0202600724 C24.1853727,0.0245810171 24.20644,0.0294982192 24.2272511,0.0350436358 C24.2426326,0.0392143823 24.2586127,0.0438680817 24.2744957,0.0489118671 C24.3010894,0.057317376 24.3268746,0.0666868139 24.3521628,0.0770217356 C24.3621569,0.0810938493 24.3727073,0.0855931997 24.3831961,0.0902746258 C24.4192898,0.106464396 24.4538417,0.124354725 24.4872001,0.14405159 C24.4943445,0.148165255 24.5015032,0.152506441 24.50862,0.156941632 C24.5371724,0.174857584 24.5646054,0.19386076 24.5910403,0.21410191 C24.6270713,0.241626884 24.6618228,0.272016977 24.6949029,0.305097103 L24.6092693,0.228382639 C24.6360648,0.249857 24.6617762,0.272628169 24.6863082,0.296600978 L24.6949029,0.305097103 C24.6977767,0.307970859 24.7006301,0.310857229 24.7034633,0.313756034 C24.7273718,0.338223823 24.750143,0.36393518 24.7716174,0.390730655 C24.7765839,0.396837179 24.7813674,0.402938277 24.7860732,0.409079767 C24.8061392,0.435394614 24.8251424,0.462827574 24.842821,0.491171977 C24.8474936,0.498496824 24.8518347,0.505655495 24.8560819,0.512854281 C24.8756453,0.546158255 24.8935356,0.580710167 24.9094848,0.616321041 C24.9144068,0.627292735 24.9189062,0.637843058 24.9232234,0.64845013 C24.9333132,0.673125389 24.9426826,0.698910611 24.9510408,0.725147056 C24.9561319,0.741387331 24.9607856,0.757367433 24.9650492,0.773429568 C24.9705018,0.793559991 24.975419,0.814627339 24.9796864,0.835929442 C24.9837079,0.856520493 24.987093,0.876477651 24.9898952,0.896500712 C24.9965459,0.943452673 25,0.992156291 25,1.04166667 L24.9960038,0.950231946 C24.9977217,0.969843864 24.9988857,0.989495165 24.9994958,1.00916045 L25,1.04166667 L25,7.29166667 C25,7.86696328 24.5336299,8.33333333 23.9583333,8.33333333 C23.3830367,8.33333333 22.9166667,7.86696328 22.9166667,7.29166667 L22.9166667,7.29166667 L22.916,3.556 L14.7990696,11.6740696 C14.4235654,12.0495737 13.8326998,12.0784586 13.4240631,11.7607244 L13.3259304,11.6740696 L8.85416667,7.20230579 L1.77823623,14.2782362 C1.37144009,14.6850324 0.71189324,14.6850324 0.305097103,14.2782362 C-0.101699034,13.8714401 -0.101699034,13.2118932 0.305097103,12.8050971 L0.305097103,12.8050971 L8.1175971,4.9925971 C8.52439324,4.58580097 9.18394009,4.58580097 9.59073623,4.9925971 L9.59073623,4.9925971 L14.0625,9.46436087 L21.443,2.083 L17.7083333,2.08333333 C17.1713898,2.08333333 16.7293335,1.6770732 16.672779,1.15516773 L16.6666667,1.04166667 C16.6666667,0.466370052 17.1330367,0 17.7083333,0 L17.7083333,0 Z" id="path-3"></path>
    </defs>
    <g id="é¡µé¢-1" stroke="none" stroke-width="1" fill="none" fill-rule="evenodd">
        <g id="Homepage" transform="translate(-1162.000000, -467.000000)">
            <g id="ç¼–ç»„-4" transform="translate(1162.000000, 467.000000)">
                <g id="user" transform="translate(3.125000, 2.083333)">
                    <mask id="mask-2" fill="white">
                        <use xlink:href="#path-1"></use>
                    </mask>
                    <use id="Combined-Shape" fill="#FFFFFF" fill-rule="nonzero" xlink:href="#path-1"></use>
                    <g id="COLOR/-black" mask="url(#mask-2)" fill="#FFFFFF">
                        <g transform="translate(-3.125000, -2.083333)" id="Rectangle">
                            <rect x="0" y="0" width="25" height="25"></rect>
                        </g>
                    </g>
                </g>
                <g id="trending-up" transform="translate(40.000000, 5.208333)">
                    <mask id="mask-4" fill="white">
                        <use xlink:href="#path-3"></use>
                    </mask>
                    <use id="Combined-Shape" fill="#FFFFFF" fill-rule="nonzero" xlink:href="#path-3"></use>
                    <g id="ðŸŽ¨Color" mask="url(#mask-4)" fill="#FFFFFF">
                        <g transform="translate(0.000000, -5.208333)" id="Rectangle">
                            <rect x="0" y="0" width="25" height="25"></rect>
                        </g>
                    </g>
                </g>
            </g>
        </g>
    </g>
</svg>