<?xml version="1.0" encoding="UTF-8"?>
<svg width="18px" height="16px" viewBox="0 0 18 16" version="1.1" xmlns="http://www.w3.org/2000/svg" xmlns:xlink="http://www.w3.org/1999/xlink">
    <title>bar-chart</title>
    <defs>
        <path d="M15.75,0 C16.1642136,0 16.5,0.335786438 16.5,0.75 L16.5,14.25 C16.5,14.6642136 16.1642136,15 15.75,15 L12.75,15 C12.3357864,15 12,14.6642136 12,14.25 L12,0.75 C12,0.335786438 12.3357864,0 12.75,0 L15.75,0 Z M9.75,3.75 C10.1642136,3.75 10.5,4.08578644 10.5,4.5 L10.5,14.25 C10.5,14.6642136 10.1642136,15 9.75,15 L6.75,15 C6.33578644,15 6,14.6642136 6,14.25 L6,4.5 C6,4.08578644 6.33578644,3.75 6.75,3.75 L9.75,3.75 Z M3.75,7.5 C4.16421356,7.5 4.5,7.83578644 4.5,8.25 L4.5,14.25 C4.5,14.6642136 4.16421356,15 3.75,15 L0.75,15 C0.335786438,15 0,14.6642136 0,14.25 L0,8.25 C0,7.83578644 0.335786438,7.5 0.75,7.5 L3.75,7.5 Z M15,1.5 L13.5,1.5 L13.5,13.5 L15,13.5 L15,1.5 Z M9,5.25 L7.5,5.25 L7.5,13.5 L9,13.5 L9,5.25 Z M3,9 L1.5,9 L1.5,13.5 L3,13.5 L3,9 Z" id="path-1"></path>
    </defs>
    <g id="页面-1" stroke="none" stroke-width="1" fill="none" fill-rule="evenodd">
        <g id="Subjects" transform="translate(-214.000000, -502.000000)">
            <g id="编组-5" transform="translate(167.000000, 448.000000)">
                <g id="编组-3" transform="translate(38.000000, 44.000000)">
                    <g id="bar-chart" transform="translate(9.750000, 10.500000)">
                        <mask id="mask-2" fill="white">
                            <use xlink:href="#path-1"></use>
                        </mask>
                        <use id="Combined-Shape" fill="#000000" fill-rule="nonzero" xlink:href="#path-1"></use>
                        <g id="COLOR/-black" mask="url(#mask-2)" fill="#000000">
                            <g transform="translate(-0.750000, -1.500000)" id="Rectangle">
                                <rect x="0" y="0" width="18" height="18"></rect>
                            </g>
                        </g>
                    </g>
                </g>
            </g>
        </g>
    </g>
</svg>