<?xml version="1.0" encoding="UTF-8"?>
<svg width="3px" height="11px" viewBox="0 0 3 11" version="1.1" xmlns="http://www.w3.org/2000/svg" xmlns:xlink="http://www.w3.org/1999/xlink">
    <title>more-vertical</title>
    <defs>
        <path d="M1.375,7.33333333 C2.13439153,7.33333333 2.75,7.9489418 2.75,8.70833333 C2.75,9.46772486 2.13439153,10.0833333 1.375,10.0833333 C0.615608469,10.0833333 0,9.46772486 0,8.70833333 C0,7.9489418 0.615608469,7.33333333 1.375,7.33333333 Z M1.375,8.25 C1.12186949,8.25 0.916666667,8.45520282 0.916666667,8.70833333 C0.916666667,8.96146384 1.12186949,9.16666667 1.375,9.16666667 C1.62813051,9.16666667 1.83333333,8.96146384 1.83333333,8.70833333 C1.83333333,8.45520282 1.62813051,8.25 1.375,8.25 Z M1.375,3.66666667 C2.13439153,3.66666667 2.75,4.28227514 2.75,5.04166667 C2.75,5.8010582 2.13439153,6.41666667 1.375,6.41666667 C0.615608469,6.41666667 0,5.8010582 0,5.04166667 C0,4.28227514 0.615608469,3.66666667 1.375,3.66666667 Z M1.375,4.58333333 C1.12186949,4.58333333 0.916666667,4.78853616 0.916666667,5.04166667 C0.916666667,5.29479718 1.12186949,5.5 1.375,5.5 C1.62813051,5.5 1.83333333,5.29479718 1.83333333,5.04166667 C1.83333333,4.78853616 1.62813051,4.58333333 1.375,4.58333333 Z M1.375,0 C2.13439153,0 2.75,0.615608469 2.75,1.375 C2.75,2.13439153 2.13439153,2.75 1.375,2.75 C0.615608469,2.75 0,2.13439153 0,1.375 C0,0.615608469 0.615608469,0 1.375,0 Z M1.375,0.916666667 C1.12186949,0.916666667 0.916666667,1.12186949 0.916666667,1.375 C0.916666667,1.62813051 1.12186949,1.83333333 1.375,1.83333333 C1.62813051,1.83333333 1.83333333,1.62813051 1.83333333,1.375 C1.83333333,1.12186949 1.62813051,0.916666667 1.375,0.916666667 Z" id="path-1"></path>
    </defs>
    <g id="页面-1" stroke="none" stroke-width="1" fill="none" fill-rule="evenodd">
        <g id="Subjects" transform="translate(-755.000000, -421.000000)">
            <g id="more-vertical" transform="translate(755.125000, 421.458333)">
                <mask id="mask-2" fill="white">
                    <use xlink:href="#path-1"></use>
                </mask>
                <use id="Combined-Shape" fill="#D0D0D0" xlink:href="#path-1"></use>
                <g id="COLOR/-black" mask="url(#mask-2)" fill="#D0D0D0">
                    <g transform="translate(-4.125000, -0.458333)" id="Rectangle">
                        <rect x="0" y="0" width="11" height="11"></rect>
                    </g>
                </g>
            </g>
        </g>
    </g>
</svg>