<?xml version="1.0" encoding="UTF-8"?>
<svg width="14px" height="12px" viewBox="0 0 14 12" version="1.1" xmlns="http://www.w3.org/2000/svg" xmlns:xlink="http://www.w3.org/1999/xlink">
    <title>arrow-right</title>
    <defs>
        <path d="M7.71966991,0.219669914 C8.01256313,-0.0732233047 8.48743687,-0.0732233047 8.78033009,0.219669914 L8.78033009,0.219669914 L13.2803301,4.71966991 C13.3049299,4.74426976 13.3278288,4.77057056 13.3488352,4.79838075 C13.3568243,4.80887091 13.3643147,4.81933877 13.3715034,4.82994996 C13.3825387,4.84634194 13.393187,4.86349194 13.403145,4.88108416 C13.4112981,4.89537558 13.4189416,4.91000914 13.4260696,4.92482849 C13.434555,4.94248608 13.4425505,4.96090579 13.4498114,4.97969108 C13.4539715,4.99054351 13.457697,5.00090869 13.4611871,5.01133534 C13.4684207,5.03271655 13.4748291,5.0551728 13.480192,5.07803188 C13.4829853,5.0902739 13.4854242,5.10196718 13.4875819,5.113702 C13.4957051,5.15731196 13.5,5.20315442 13.5,5.25 L13.4964221,5.17660639 C13.4978527,5.19124091 13.4988542,5.20590946 13.4994268,5.22059162 L13.5,5.25 C13.5,5.25981388 13.4998115,5.26958374 13.4994379,5.27930615 C13.4988867,5.29376219 13.4978395,5.30909812 13.4963234,5.32439636 C13.4941946,5.34611633 13.4912529,5.36678009 13.4874876,5.38715509 C13.4854242,5.39803282 13.4829853,5.4097261 13.4802653,5.42136702 C13.4748291,5.4448272 13.4684207,5.46728345 13.4610197,5.48928365 C13.457697,5.49909131 13.4539715,5.50945649 13.4500107,5.51975191 C13.4425505,5.53909421 13.434555,5.55751392 13.4258602,5.57553283 C13.4189416,5.58999086 13.4112981,5.60462442 13.4031392,5.61904532 C13.393187,5.63650806 13.3825387,5.65365806 13.3712371,5.67032907 C13.3451622,5.70893181 13.3147711,5.74588908 13.2803301,5.78033009 L13.3488352,5.70161925 C13.3471451,5.70385686 13.3454427,5.70608469 13.3437281,5.70830264 L13.2803301,5.78033009 L8.78033009,10.2803301 C8.48743687,10.5732233 8.01256313,10.5732233 7.71966991,10.2803301 C7.4267767,9.98743687 7.4267767,9.51256313 7.71966991,9.21966991 L7.71966991,9.21966991 L10.94,5.999 L0.75,6 C0.370304234,6 0.0565090391,5.71784612 0.006846616,5.35177056 L0,5.25 C0,4.83578644 0.335786438,4.5 0.75,4.5 L0.75,4.5 L10.938,4.499 L7.71966991,1.28033009 C7.45340335,1.01406352 7.4291973,0.597399841 7.64705176,0.303788347 Z" id="path-1"></path>
    </defs>
    <g id="é¡µé¢-1" stroke="none" stroke-width="1" fill="none" fill-rule="evenodd">
        <g id="User-Home" transform="translate(-1259.000000, -547.000000)">
            <g id="ç¼–ç»„-20" transform="translate(402.000000, 509.000000)">
                <g id="ç¼–ç»„-19" transform="translate(791.000000, 24.000000)">
                    <g id="arrow-right" transform="translate(66.250000, 14.750000)">
                        <mask id="mask-2" fill="white">
                            <use xlink:href="#path-1"></use>
                        </mask>
                        <use id="Combined-Shape" fill="#716F6F" fill-rule="nonzero" xlink:href="#path-1"></use>
                        <g id="ðŸŽ¨Color" mask="url(#mask-2)" fill="#716F6F">
                            <g transform="translate(-2.250000, -3.750000)" id="Rectangle">
                                <rect x="0" y="0" width="18" height="18"></rect>
                            </g>
                        </g>
                    </g>
                </g>
            </g>
        </g>
    </g>
</svg>