<?xml version="1.0" encoding="UTF-8"?>
<svg width="17px" height="21px" viewBox="0 0 17 21" version="1.1" xmlns="http://www.w3.org/2000/svg" xmlns:xlink="http://www.w3.org/1999/xlink">
    <title>file-text</title>
    <defs>
        <path d="M9.625,0 C9.66392646,0 9.70225922,0.00254189416 9.73984136,0.00746875176 L9.625,0 C9.66954808,0 9.71374591,0.00339712608 9.75724714,0.0100479178 C9.78774652,0.0145817157 9.81693783,0.020601708 9.84555975,0.0280342002 C9.85712149,0.0312582225 9.86897861,0.0346108046 9.8807541,0.0382101906 C9.90674548,0.0459091004 9.93198726,0.0549296514 9.95666429,0.0650451589 C9.96201178,0.0674861577 9.96710628,0.0696312258 9.97218017,0.0718244308 C9.99898711,0.0831714572 10.025333,0.0961941101 10.0508896,0.11046104 C10.0634738,0.117658928 10.0755403,0.124773656 10.0874401,0.132181414 C10.1066486,0.144029738 10.1252866,0.156684954 10.1433923,0.170020946 C10.1535896,0.177571085 10.1643205,0.18583517 10.1748707,0.194358893 C10.1960913,0.21151345 10.2160444,0.229239123 10.235151,0.247830412 C10.2379764,0.250579221 10.2408563,0.253419456 10.2437184,0.256281566 L15.4937184,5.50628157 L15.5021696,5.51484903 C15.5207609,5.53395559 15.5384865,5.55390872 15.5552833,5.57464508 L15.4937184,5.50628157 C15.5253408,5.53790391 15.5542927,5.57169745 15.5804292,5.60731181 C15.593315,5.62471342 15.6059703,5.64335142 15.6179069,5.66248394 C15.6252263,5.67445968 15.6323411,5.68652618 15.6391581,5.69874813 C15.6693662,5.75254045 15.6937549,5.80942016 15.7119561,5.86900061 C15.7153892,5.88102139 15.7187418,5.89287851 15.7218444,5.90480952 C15.7402631,5.97490163 15.75,6.04881373 15.75,6.125 L15.75,6.125 L15.75,16.625 C15.75,18.0747475 14.5747475,19.25 13.125,19.25 L2.625,19.25 C1.17525253,19.25 0,18.0747475 0,16.625 L0,2.625 C0,1.17525253 1.17525253,0 2.625,0 Z M8.75,1.75 L2.625,1.75 C2.14175084,1.75 1.75,2.14175084 1.75,2.625 L1.75,16.625 C1.75,17.1082492 2.14175084,17.5 2.625,17.5 L13.125,17.5 C13.6082492,17.5 14,17.1082492 14,16.625 L14,7 L9.625,7 C9.17892386,7 8.81081077,6.66620046 8.75681749,6.23475814 L8.75,6.125 L8.75,1.75 Z M11.375,13.125 C11.8582492,13.125 12.25,13.5167508 12.25,14 C12.25,14.4832492 11.8582492,14.875 11.375,14.875 L11.375,14.875 L4.375,14.875 C3.89175084,14.875 3.5,14.4832492 3.5,14 C3.5,13.5167508 3.89175084,13.125 4.375,13.125 L4.375,13.125 Z M11.375,9.625 C11.8582492,9.625 12.25,10.0167508 12.25,10.5 C12.25,10.9832492 11.8582492,11.375 11.375,11.375 L11.375,11.375 L4.375,11.375 C3.89175084,11.375 3.5,10.9832492 3.5,10.5 C3.5,10.0167508 3.89175084,9.625 4.375,9.625 L4.375,9.625 Z M6.125,6.125 C6.60824916,6.125 7,6.51675084 7,7 C7,7.48324916 6.60824916,7.875 6.125,7.875 L6.125,7.875 L4.375,7.875 C3.89175084,7.875 3.5,7.48324916 3.5,7 C3.5,6.51675084 3.89175084,6.125 4.375,6.125 L4.375,6.125 Z M10.5,2.987 L10.5,5.25 L12.763,5.25 L10.5,2.987 Z" id="path-1"></path>
    </defs>
    <g id="é¡µé¢-1" stroke="none" stroke-width="1" fill="none" fill-rule="evenodd">
        <g id="Context-Menu" transform="translate(-373.000000, -237.000000)">
            <g id="file-text" transform="translate(373.625000, 237.875000)">
                <mask id="mask-2" fill="white">
                    <use xlink:href="#path-1"></use>
                </mask>
                <use id="Combined-Shape" fill="#FFFFFF" fill-rule="nonzero" xlink:href="#path-1"></use>
                <g id="ðŸŽ¨Color" mask="url(#mask-2)" fill="#FFFFFF">
                    <g transform="translate(-2.625000, -0.875000)" id="Rectangle">
                        <rect x="0" y="0" width="21" height="21"></rect>
                    </g>
                </g>
            </g>
        </g>
    </g>
</svg>