<?xml version="1.0" encoding="UTF-8"?>
<svg width="13px" height="13px" viewBox="0 0 13 13" version="1.1" xmlns="http://www.w3.org/2000/svg" xmlns:xlink="http://www.w3.org/1999/xlink">
    <title>user</title>
    <defs>
        <path d="M8.125,7.5 C9.85088984,7.5 11.25,8.89911016 11.25,10.625 L11.25,10.625 L11.25,11.875 C11.25,12.220178 10.970178,12.5 10.625,12.5 C10.279822,12.5 10,12.220178 10,11.875 L10,11.875 L10,10.625 C10,9.58946609 9.16053391,8.75 8.125,8.75 L8.125,8.75 L3.125,8.75 C2.08946609,8.75 1.25,9.58946609 1.25,10.625 L1.25,10.625 L1.25,11.875 C1.25,12.220178 0.970177969,12.5 0.625,12.5 C0.279822031,12.5 0,12.220178 0,11.875 L0,11.875 L0,10.625 C0,8.89911016 1.39911016,7.5 3.125,7.5 L3.125,7.5 Z M5.625,0 C7.35088984,0 8.75,1.39911016 8.75,3.125 C8.75,4.85088984 7.35088984,6.25 5.625,6.25 C3.89911016,6.25 2.5,4.85088984 2.5,3.125 C2.5,1.39911016 3.89911016,0 5.625,0 Z M5.625,1.25 C4.58946609,1.25 3.75,2.08946609 3.75,3.125 C3.75,4.16053391 4.58946609,5 5.625,5 C6.66053391,5 7.5,4.16053391 7.5,3.125 C7.5,2.08946609 6.66053391,1.25 5.625,1.25 Z" id="path-1"></path>
    </defs>
    <g id="页面-1" stroke="none" stroke-width="1" fill="none" fill-rule="evenodd" opacity="0.8">
        <g id="User-Home" transform="translate(-49.000000, -338.000000)">
            <g id="编组-10" transform="translate(47.000000, 315.000000)">
                <g id="编组-8" transform="translate(1.000000, 15.000000)">
                    <g id="user" transform="translate(1.875000, 8.250000)">
                        <mask id="mask-2" fill="white">
                            <use xlink:href="#path-1"></use>
                        </mask>
                        <use id="Combined-Shape" fill-opacity="0.8" fill="#878787" fill-rule="nonzero" xlink:href="#path-1"></use>
                        <g id="COLOR/-black" mask="url(#mask-2)" fill="#878787" fill-opacity="0.8">
                            <g transform="translate(-1.875000, -1.250000)" id="Rectangle">
                                <rect x="0" y="0" width="15" height="15"></rect>
                            </g>
                        </g>
                    </g>
                </g>
            </g>
        </g>
    </g>
</svg>