<?xml version="1.0" encoding="UTF-8"?>
<svg width="20px" height="14px" viewBox="0 0 20 14" version="1.1" xmlns="http://www.w3.org/2000/svg" xmlns:xlink="http://www.w3.org/1999/xlink">
    <title>menu</title>
    <defs>
        <path d="M1,8 L19,8 C19.5522847,8 20,7.55228475 20,7 C20,6.44771525 19.5522847,6 19,6 L1,6 C0.44771525,6 0,6.44771525 0,7 C0,7.55228475 0.44771525,8 1,8 Z M1,2 L19,2 C19.5522847,2 20,1.55228475 20,1 C20,0.44771525 19.5522847,0 19,0 L1,0 C0.44771525,0 0,0.44771525 0,1 C0,1.55228475 0.44771525,2 1,2 Z M1,14 L19,14 C19.5522847,14 20,13.5522847 20,13 C20,12.4477153 19.5522847,12 19,12 L1,12 C0.44771525,12 0,12.4477153 0,13 C0,13.5522847 0.44771525,14 1,14 Z" id="path-1"></path>
    </defs>
    <g id="页面-1" stroke="none" stroke-width="1" fill="none" fill-rule="evenodd">
        <g id="Subjects" transform="translate(-811.000000, -671.000000)">
            <g id="编组-5" transform="translate(769.000000, 448.000000)">
                <g id="menu" transform="translate(42.000000, 223.000000)">
                    <mask id="mask-2" fill="white">
                        <use xlink:href="#path-1"></use>
                    </mask>
                    <use id="Combined-Shape" fill="#FFFFFF" fill-rule="nonzero" xlink:href="#path-1"></use>
                    <g id="COLOR/-black" mask="url(#mask-2)" fill="#FFFFFF">
                        <g transform="translate(-2.000000, -5.000000)" id="Rectangle">
                            <rect x="0" y="0" width="24" height="24"></rect>
                        </g>
                    </g>
                </g>
            </g>
        </g>
    </g>
</svg>