<?xml version="1.0" encoding="UTF-8"?>
<svg width="17px" height="17px" viewBox="0 0 17 17" version="1.1" xmlns="http://www.w3.org/2000/svg" xmlns:xlink="http://www.w3.org/1999/xlink">
    <title>clock</title>
    <defs>
        <path d="M7.79166667,-1.77635684e-15 C12.0948853,-1.77635684e-15 15.5833333,3.48844799 15.5833333,7.79166667 C15.5833333,12.0948853 12.0948853,15.5833333 7.79166667,15.5833333 C3.48844799,15.5833333 0,12.0948853 0,7.79166667 C0,3.48844799 3.48844799,-1.77635684e-15 7.79166667,-1.77635684e-15 Z M7.79166667,1.41666667 C4.27085139,1.41666667 1.41666667,4.27085139 1.41666667,7.79166667 C1.41666667,11.3124819 4.27085139,14.1666667 7.79166667,14.1666667 C11.3124819,14.1666667 14.1666667,11.3124819 14.1666667,7.79166667 C14.1666667,4.27085139 11.3124819,1.41666667 7.79166667,1.41666667 Z M7.79166667,2.83333333 C8.18286836,2.83333333 8.5,3.15046497 8.5,3.54166667 L8.5,3.54166667 L8.5,7.49826539 L10.417534,9.41579936 C10.6941553,9.69242074 10.6941553,10.1409126 10.417534,10.417534 C10.1409126,10.6941553 9.69242074,10.6941553 9.41579936,10.417534 L9.41579936,10.417534 L7.29079936,8.29253397 C7.1579611,8.1596957 7.08333333,7.97952835 7.08333333,7.79166667 L7.08333333,7.79166667 L7.08333333,3.54166667 C7.08333333,3.15046497 7.40046497,2.83333333 7.79166667,2.83333333 Z" id="path-1"></path>
    </defs>
    <g id="页面-1" stroke="none" stroke-width="1" fill="none" fill-rule="evenodd">
        <g id="User-Home" transform="translate(-48.000000, -725.000000)">
            <g id="编组-11" transform="translate(32.000000, 503.000000)">
                <g id="编组-7" transform="translate(0.000000, 210.000000)">
                    <g id="clock" transform="translate(16.708333, 12.708333)">
                        <mask id="mask-2" fill="white">
                            <use xlink:href="#path-1"></use>
                        </mask>
                        <use id="Combined-Shape" fill="#626262" fill-rule="nonzero" xlink:href="#path-1"></use>
                        <g id="COLOR/-black" mask="url(#mask-2)" fill="#626262">
                            <g transform="translate(-0.708333, -0.708333)" id="Rectangle">
                                <rect x="0" y="0" width="17" height="17"></rect>
                            </g>
                        </g>
                    </g>
                </g>
            </g>
        </g>
    </g>
</svg>