<?xml version="1.0" encoding="UTF-8"?>
<svg width="16px" height="18px" viewBox="0 0 16 18" version="1.1" xmlns="http://www.w3.org/2000/svg" xmlns:xlink="http://www.w3.org/1999/xlink">
    <title>zap</title>
    <defs>
        <path d="M6.6518467,10.5024286 L0.751433364,10.5024286 C0.115555128,10.5024286 -0.231811922,9.76078554 0.175267405,9.27229035 L7.6752674,0.272290345 C8.1547071,-0.303037293 9.08853247,0.102329111 8.99564177,0.845454696 L8.35102003,6.00242864 L14.2514334,6.00242864 C14.8873116,6.00242864 15.2346787,6.74407175 14.8275993,7.23256694 L7.32759932,16.2325669 C6.84815963,16.8078946 5.91433426,16.4025282 6.00722496,15.6594026 L6.6518467,10.5024286 Z M2.35271457,9.00242864 L7.50143336,9.00242864 C7.95255686,9.00242864 8.30159675,9.39781483 8.24564177,9.8454547 L7.81293789,13.3070858 L12.6501522,7.50242864 L7.50143336,7.50242864 C7.05030987,7.50242864 6.70126997,7.10704246 6.75722496,6.65940259 L7.18992884,3.19777153 L2.35271457,9.00242864 Z" id="path-1"></path>
    </defs>
    <g id="页面-1" stroke="none" stroke-width="1" fill="none" fill-rule="evenodd">
        <g id="Subjects" transform="translate(-819.000000, -501.000000)">
            <g id="编组-5" transform="translate(769.000000, 448.000000)">
                <g id="编组-3" transform="translate(40.000000, 44.000000)">
                    <g id="zap" transform="translate(10.500000, 9.750000)">
                        <mask id="mask-2" fill="white">
                            <use xlink:href="#path-1"></use>
                        </mask>
                        <use id="Shape" fill="#000000" fill-rule="nonzero" xlink:href="#path-1"></use>
                        <g id="COLOR/-black" mask="url(#mask-2)" fill="#000000">
                            <g transform="translate(-1.500000, -0.750000)" id="Rectangle">
                                <rect x="0" y="0" width="18" height="18"></rect>
                            </g>
                        </g>
                    </g>
                </g>
            </g>
        </g>
    </g>
</svg>