<?xml version="1.0" encoding="UTF-8"?>
<svg width="9px" height="11px" viewBox="0 0 9 11" version="1.1" xmlns="http://www.w3.org/2000/svg" xmlns:xlink="http://www.w3.org/1999/xlink">
    <title>user</title>
    <defs>
        <path d="M5.95833333,5.5 C7.22398589,5.5 8.25,6.52601411 8.25,7.79166667 L8.25,7.79166667 L8.25,8.70833333 C8.25,8.96146384 8.04479718,9.16666667 7.79166667,9.16666667 C7.53853616,9.16666667 7.33333333,8.96146384 7.33333333,8.70833333 L7.33333333,8.70833333 L7.33333333,7.79166667 C7.33333333,7.03227514 6.71772486,6.41666667 5.95833333,6.41666667 L5.95833333,6.41666667 L2.29166667,6.41666667 C1.53227514,6.41666667 0.916666667,7.03227514 0.916666667,7.79166667 L0.916666667,7.79166667 L0.916666667,8.70833333 C0.916666667,8.96146384 0.711463844,9.16666667 0.458333333,9.16666667 C0.205202823,9.16666667 0,8.96146384 0,8.70833333 L0,8.70833333 L0,7.79166667 C0,6.52601411 1.02601411,5.5 2.29166667,5.5 L2.29166667,5.5 Z M4.125,0 C5.39065255,0 6.41666667,1.02601412 6.41666667,2.29166667 C6.41666667,3.55731922 5.39065255,4.58333333 4.125,4.58333333 C2.85934745,4.58333333 1.83333333,3.55731922 1.83333333,2.29166667 C1.83333333,1.02601412 2.85934745,0 4.125,0 Z M4.125,0.916666667 C3.36560847,0.916666667 2.75,1.53227514 2.75,2.29166667 C2.75,3.0510582 3.36560847,3.66666667 4.125,3.66666667 C4.88439153,3.66666667 5.5,3.0510582 5.5,2.29166667 C5.5,1.53227514 4.88439153,0.916666667 4.125,0.916666667 Z" id="path-1"></path>
    </defs>
    <g id="页面-1" stroke="none" stroke-width="1" fill="none" fill-rule="evenodd">
        <g id="搜索页" transform="translate(-646.000000, -739.000000)">
            <g id="编组-8" transform="translate(634.000000, 555.000000)">
                <g id="user" transform="translate(12.375000, 184.916667)">
                    <mask id="mask-2" fill="white">
                        <use xlink:href="#path-1"></use>
                    </mask>
                    <use id="Combined-Shape" fill="#5E6269" fill-rule="nonzero" xlink:href="#path-1"></use>
                    <g id="COLOR/-black" mask="url(#mask-2)" fill="#5E6269">
                        <g transform="translate(-1.375000, -0.916667)" id="Rectangle">
                            <rect x="0" y="0" width="11" height="11"></rect>
                        </g>
                    </g>
                </g>
            </g>
        </g>
    </g>
</svg>