<?xml version="1.0" encoding="UTF-8"?>
<svg width="13px" height="13px" viewBox="0 0 13 13" version="1.1" xmlns="http://www.w3.org/2000/svg" xmlns:xlink="http://www.w3.org/1999/xlink">
    <title>hash</title>
    <defs>
        <path d="M8.10147832,0.000413717474 L8.1940197,0.0038777862 C8.50589858,0.0385309951 8.73855649,0.29706289 8.7496414,0.60153344 L8.74617733,0.694074824 L8.406,3.75 L10.625,3.75005512 C10.9387982,3.75005512 11.1985831,3.981313 11.2432234,4.2826972 L11.25,4.37505512 C11.25,4.68885327 11.0187421,4.94863826 10.7173579,4.99327852 L10.625,5.00005512 L8.268,5 L7.99,7.5 L10.625,7.50005512 C10.9387982,7.50005512 11.1985831,7.731313 11.2432234,8.0326972 L11.25,8.12505512 C11.25,8.47023309 10.970178,8.75005512 10.625,8.75005512 L10.625,8.75005512 L7.851,8.75 L7.49617733,11.9440748 C7.46152413,12.2559537 7.20299223,12.4886116 6.89852168,12.4996965 L6.8059803,12.4962325 C6.49410142,12.4615792 6.26144351,12.2030474 6.2503586,11.8985768 L6.25382267,11.8060354 L6.592,8.75 L4.101,8.75 L3.74617733,11.9440748 C3.71152413,12.2559537 3.45299223,12.4886116 3.14852168,12.4996965 L3.0559803,12.4962325 C2.74410142,12.4615792 2.51144351,12.2030474 2.5003586,11.8985768 L2.50382267,11.8060354 L2.842,8.75 L0.625,8.75005512 C0.311201847,8.75005512 0.0514168647,8.51879724 0.00677660476,8.21741304 L0,8.12505512 C0,7.77987715 0.279822031,7.50005512 0.625,7.50005512 L0.625,7.50005512 L2.981,7.5 L3.259,5 L0.625,5.00005512 C0.311201847,5.00005512 0.0514168647,4.76879724 0.00677660476,4.46741304 L0,4.37505512 C0,4.06125697 0.231257877,3.80147199 0.532642081,3.75683173 L0.625,3.75005512 L3.398,3.75 L3.75382267,0.556035417 C3.78847587,0.244156536 4.04700777,0.0114986282 4.35147832,0.000413717474 L4.4440197,0.0038777862 C4.75589858,0.0385309951 4.98855649,0.29706289 4.9996414,0.60153344 L4.99617733,0.694074824 L4.656,3.75 L7.148,3.75 L7.50382267,0.556035417 C7.53847587,0.244156536 7.79700777,0.0114986282 8.10147832,0.000413717474 Z M7.009,5 L4.518,5 L4.24,7.5 L6.731,7.5 L7.009,5 Z" id="path-1"></path>
    </defs>
    <g id="页面-1" stroke="none" stroke-width="1" fill="none" fill-rule="evenodd" opacity="0.8">
        <g id="User-Home" transform="translate(-112.000000, -338.000000)">
            <g id="编组-10" transform="translate(47.000000, 315.000000)">
                <g id="编组-8" transform="translate(1.000000, 15.000000)">
                    <g id="hash" transform="translate(64.875000, 8.250000)">
                        <mask id="mask-2" fill="white">
                            <use xlink:href="#path-1"></use>
                        </mask>
                        <use id="Combined-Shape" fill-opacity="0.8" fill="#878787" fill-rule="nonzero" xlink:href="#path-1"></use>
                        <g id="COLOR/-black" mask="url(#mask-2)" fill="#878787" fill-opacity="0.8">
                            <g transform="translate(-1.875000, -1.250000)" id="Rectangle">
                                <rect x="0" y="0" width="15" height="15"></rect>
                            </g>
                        </g>
                    </g>
                </g>
            </g>
        </g>
    </g>
</svg>