<?xml version="1.0" encoding="UTF-8"?>
<svg width="15px" height="15px" viewBox="0 0 15 15" version="1.1" xmlns="http://www.w3.org/2000/svg" xmlns:xlink="http://www.w3.org/1999/xlink">
    <title>grid</title>
    <defs>
        <path d="M1.41666667,1.41666667 L1.41666667,4.95833333 L4.95833333,4.95833333 L4.95833333,1.41666667 L1.41666667,1.41666667 Z M13.4583333,7.79166667 C13.849535,7.79166667 14.1666667,8.1087983 14.1666667,8.5 L14.1666667,13.4583333 C14.1666667,13.849535 13.849535,14.1666667 13.4583333,14.1666667 L8.5,14.1666667 C8.1087983,14.1666667 7.79166667,13.849535 7.79166667,13.4583333 L7.79166667,8.5 C7.79166667,8.1087983 8.1087983,7.79166667 8.5,7.79166667 L13.4583333,7.79166667 Z M5.66666667,7.79166667 C6.05786836,7.79166667 6.375,8.1087983 6.375,8.5 L6.375,13.4583333 C6.375,13.849535 6.05786836,14.1666667 5.66666667,14.1666667 L0.708333333,14.1666667 C0.317131636,14.1666667 0,13.849535 0,13.4583333 L0,8.5 C0,8.1087983 0.317131636,7.79166667 0.708333333,7.79166667 L5.66666667,7.79166667 Z M12.75,9.20833333 L9.20833333,9.20833333 L9.20833333,12.75 L12.75,12.75 L12.75,9.20833333 Z M4.95833333,9.20833333 L1.41666667,9.20833333 L1.41666667,12.75 L4.95833333,12.75 L4.95833333,9.20833333 Z M5.66666667,-1.77635684e-15 C6.05786836,-1.77635684e-15 6.375,0.317131636 6.375,0.708333333 L6.375,5.66666667 C6.375,6.05786836 6.05786836,6.375 5.66666667,6.375 L0.708333333,6.375 C0.317131636,6.375 0,6.05786836 0,5.66666667 L0,0.708333333 C0,0.317131636 0.317131636,-1.77635684e-15 0.708333333,-1.77635684e-15 L5.66666667,-1.77635684e-15 Z M13.4583333,-1.77635684e-15 C13.849535,-1.77635684e-15 14.1666667,0.317131636 14.1666667,0.708333333 L14.1666667,5.66666667 C14.1666667,6.05786836 13.849535,6.375 13.4583333,6.375 L8.5,6.375 C8.1087983,6.375 7.79166667,6.05786836 7.79166667,5.66666667 L7.79166667,0.708333333 C7.79166667,0.317131636 8.1087983,-1.77635684e-15 8.5,-1.77635684e-15 L13.4583333,-1.77635684e-15 Z M12.75,1.41666667 L9.20833333,1.41666667 L9.20833333,4.95833333 L12.75,4.95833333 L12.75,1.41666667 Z" id="path-1"></path>
    </defs>
    <g id="页面-1" stroke="none" stroke-width="1" fill="none" fill-rule="evenodd">
        <g id="User-Home" transform="translate(-49.000000, -516.000000)">
            <g id="编组-11" transform="translate(32.000000, 503.000000)">
                <g id="grid" transform="translate(17.416667, 13.416667)">
                    <mask id="mask-2" fill="white">
                        <use xlink:href="#path-1"></use>
                    </mask>
                    <use id="Combined-Shape" fill="#626262" fill-rule="nonzero" xlink:href="#path-1"></use>
                    <g id="COLOR/-black" mask="url(#mask-2)" fill="#626262">
                        <g transform="translate(-1.416667, -1.416667)" id="Rectangle">
                            <rect x="0" y="0" width="17" height="17"></rect>
                        </g>
                    </g>
                </g>
            </g>
        </g>
    </g>
</svg>