<?xml version="1.0" encoding="UTF-8"?>
<svg width="13px" height="17px" viewBox="0 0 13 17" version="1.1" xmlns="http://www.w3.org/2000/svg" xmlns:xlink="http://www.w3.org/1999/xlink">
    <title>file-text</title>
    <defs>
        <path d="M7.79166667,-1.77635684e-15 C7.8263929,-1.77635684e-15 7.86053549,0.00249892701 7.8939244,0.00732676601 L7.79166667,-1.77635684e-15 C7.84188016,-1.77635684e-15 7.89154395,0.00533169047 7.93990115,0.0156815643 C7.95897338,0.0196109581 7.97725199,0.0243010768 7.99523035,0.0296860914 C8.00694497,0.0333917676 8.01871405,0.0372598554 8.03037026,0.0414321839 C8.05661855,0.0506164748 8.08224053,0.0615552681 8.1070364,0.0739049364 C8.1108129,0.0759571342 8.11447763,0.0778198816 8.11812652,0.0797147303 C8.14296495,0.0924657852 8.1670793,0.106902912 8.19021098,0.122674669 C8.19891175,0.12867636 8.20747418,0.134786977 8.21590746,0.141094424 C8.21874495,0.14317017 8.22163527,0.145369366 8.22450805,0.147590148 L8.29253397,0.20746603 L8.29253397,0.20746603 L12.542534,4.45746603 C12.5664615,4.48139355 12.5886851,4.50702496 12.6090072,4.53416266 L12.542534,4.45746603 C12.5741355,4.48906755 12.6024427,4.52334762 12.6272344,4.5597726 C12.6430971,4.5829207 12.6575342,4.60703505 12.6705259,4.63202128 C12.6721801,4.63552237 12.6740429,4.6391871 12.6758733,4.64286723 C12.6884447,4.66775947 12.6993835,4.69338145 12.7088063,4.71972443 C12.7127401,4.73128595 12.7166082,4.74305503 12.7201671,4.75492499 C12.7256989,4.77274801 12.730389,4.79102662 12.7343531,4.8095743 C12.7376155,4.82550335 12.7404032,4.84104044 12.7426716,4.85668565 C12.7475011,4.88946451 12.75,4.9236071 12.75,4.95833333 L12.75,4.95833333 L12.75,13.4583333 C12.75,14.6319384 11.7986051,15.5833333 10.625,15.5833333 L2.125,15.5833333 C0.951394907,15.5833333 0,14.6319384 0,13.4583333 L0,2.125 C0,0.951394907 0.951394907,-1.77635684e-15 2.125,-1.77635684e-15 Z M7.083,1.416 L2.125,1.41666667 C1.7337983,1.41666667 1.41666667,1.7337983 1.41666667,2.125 L1.41666667,13.4583333 C1.41666667,13.849535 1.7337983,14.1666667 2.125,14.1666667 L10.625,14.1666667 C11.0162017,14.1666667 11.3333333,13.849535 11.3333333,13.4583333 L11.333,5.666 L7.79166667,5.66666667 C7.43306511,5.66666667 7.13670298,5.400188 7.08979958,5.05444997 L7.08333333,4.95833333 L7.083,1.416 Z M9.20833333,10.625 C9.59953503,10.625 9.91666667,10.9421316 9.91666667,11.3333333 C9.91666667,11.724535 9.59953503,12.0416667 9.20833333,12.0416667 L9.20833333,12.0416667 L3.54166667,12.0416667 C3.15046497,12.0416667 2.83333333,11.724535 2.83333333,11.3333333 C2.83333333,10.9421316 3.15046497,10.625 3.54166667,10.625 L3.54166667,10.625 Z M9.20833333,7.79166667 C9.59953503,7.79166667 9.91666667,8.1087983 9.91666667,8.5 C9.91666667,8.8912017 9.59953503,9.20833333 9.20833333,9.20833333 L9.20833333,9.20833333 L3.54166667,9.20833333 C3.15046497,9.20833333 2.83333333,8.8912017 2.83333333,8.5 C2.83333333,8.1087983 3.15046497,7.79166667 3.54166667,7.79166667 L3.54166667,7.79166667 Z M4.95833333,4.95833333 C5.34953503,4.95833333 5.66666667,5.27546497 5.66666667,5.66666667 C5.66666667,6.05786836 5.34953503,6.375 4.95833333,6.375 L4.95833333,6.375 L3.54166667,6.375 C3.15046497,6.375 2.83333333,6.05786836 2.83333333,5.66666667 C2.83333333,5.27546497 3.15046497,4.95833333 3.54166667,4.95833333 L3.54166667,4.95833333 Z M8.499,2.417 L8.5,4.25 L10.332,4.25 L8.499,2.417 Z" id="path-1"></path>
    </defs>
    <g id="é¡µé¢-1" stroke="none" stroke-width="1" fill="none" fill-rule="evenodd">
        <g id="User-Home" transform="translate(-50.000000, -558.000000)">
            <g id="ç¼–ç»„-11" transform="translate(32.000000, 503.000000)">
                <g id="ç¼–ç»„-7" transform="translate(0.000000, 42.000000)">
                    <g id="file-text" transform="translate(18.125000, 13.708333)">
                        <mask id="mask-2" fill="white">
                            <use xlink:href="#path-1"></use>
                        </mask>
                        <use id="Combined-Shape" fill="#FFCD34" fill-rule="nonzero" xlink:href="#path-1"></use>
                        <g id="ðŸŽ¨Color" mask="url(#mask-2)" fill="#FFCD34">
                            <g transform="translate(-2.125000, -0.708333)" id="Rectangle">
                                <rect x="0" y="0" width="17" height="17"></rect>
                            </g>
                        </g>
                    </g>
                </g>
            </g>
        </g>
    </g>
</svg>