<?xml version="1.0" encoding="UTF-8"?>
<svg width="16px" height="12px" viewBox="0 0 16 12" version="1.1" xmlns="http://www.w3.org/2000/svg" xmlns:xlink="http://www.w3.org/1999/xlink">
    <title>mail</title>
    <defs>
        <path d="M12.6667239,0 C13.7682471,0 14.6667239,0.898476833 14.6667239,2 L14.6667239,10 C14.6667239,11.1015232 13.7682471,12 12.6667239,12 L2.00005724,12 C0.898534075,12 5.72415011e-05,11.1015232 5.72415011e-05,10 L5.72415011e-05,2 C5.72415011e-05,0.898476833 0.898534075,0 2.00005724,0 L12.6667239,0 Z M13.333,3.28 L7.7156988,7.21282128 C7.48615204,7.37350402 7.18062911,7.37350402 6.95108235,7.21282128 L6.95108235,7.21282128 L1.333,3.28 L1.33339057,10 C1.33339057,10.3651435 1.63491374,10.6666667 2.00005724,10.6666667 L12.6667239,10.6666667 C13.0318674,10.6666667 13.3333906,10.3651435 13.3333906,10 L13.333,3.28 Z M12.6667239,1.33333333 L2.00005724,1.33333333 C1.74178501,1.33333333 1.51534187,1.4841846 1.40491424,1.70170072 L7.33339057,5.85289629 L13.2623853,1.70272402 C13.1521491,1.48465786 12.925401,1.33333333 12.6667239,1.33333333 Z" id="path-1"></path>
    </defs>
    <g id="页面-1" stroke="none" stroke-width="1" fill="none" fill-rule="evenodd">
        <g id="User-Home" transform="translate(-68.000000, -261.000000)">
            <g id="编组-4" transform="translate(59.000000, 250.000000)">
                <g id="mail" transform="translate(9.666667, 11.000000)">
                    <mask id="mask-2" fill="white">
                        <use xlink:href="#path-1"></use>
                    </mask>
                    <use id="Combined-Shape" fill="#9282B6" fill-rule="nonzero" xlink:href="#path-1"></use>
                    <g id="COLOR/-black" mask="url(#mask-2)" fill="#9282B6">
                        <g transform="translate(-0.666667, -2.000000)" id="Rectangle">
                            <rect x="0" y="0" width="16" height="16"></rect>
                        </g>
                    </g>
                </g>
            </g>
        </g>
    </g>
</svg>