<?xml version="1.0" encoding="UTF-8"?>
<svg width="77px" height="76px" viewBox="0 0 77 76" version="1.1" xmlns="http://www.w3.org/2000/svg" xmlns:xlink="http://www.w3.org/1999/xlink">
    <title>bar-chart-2</title>
    <defs>
        <filter x="-23.8%" y="-51.9%" width="147.5%" height="203.8%" filterUnits="objectBoundingBox" id="filter-1">
            <feOffset dx="0" dy="0" in="SourceAlpha" result="shadowOffsetOuter1"></feOffset>
            <feGaussianBlur stdDeviation="17.5" in="shadowOffsetOuter1" result="shadowBlurOuter1"></feGaussianBlur>
            <feColorMatrix values="0 0 0 0 0.850980392   0 0 0 0 0.698039216   0 0 0 0 0.97254902  0 0 0 0.5 0" type="matrix" in="shadowBlurOuter1" result="shadowMatrixOuter1"></feColorMatrix>
            <feMerge>
                <feMergeNode in="shadowMatrixOuter1"></feMergeNode>
                <feMergeNode in="SourceGraphic"></feMergeNode>
            </feMerge>
        </filter>
        <path d="M6.25,1.25 L6.25,11.25 L7.5,11.25 L7.5,1.25 L6.25,1.25 Z M8.125,0 C8.47017797,0 8.75,0.279822031 8.75,0.625 L8.75,11.875 C8.75,12.220178 8.47017797,12.5 8.125,12.5 L5.625,12.5 C5.27982203,12.5 5,12.220178 5,11.875 L5,0.625 C5,0.279822031 5.27982203,0 5.625,0 L8.125,0 Z M13.125,3.125 C13.470178,3.125 13.75,3.40482203 13.75,3.75 L13.75,11.875 C13.75,12.220178 13.470178,12.5 13.125,12.5 L10.625,12.5 C10.279822,12.5 10,12.220178 10,11.875 L10,3.75 C10,3.40482203 10.279822,3.125 10.625,3.125 L13.125,3.125 Z M3.125,6.25 C3.47017797,6.25 3.75,6.52982203 3.75,6.875 L3.75,11.875 C3.75,12.220178 3.47017797,12.5 3.125,12.5 L0.625,12.5 C0.279822031,12.5 0,12.220178 0,11.875 L0,6.875 C0,6.52982203 0.279822031,6.25 0.625,6.25 L3.125,6.25 Z M12.5,4.375 L11.25,4.375 L11.25,11.25 L12.5,11.25 L12.5,4.375 Z M2.5,7.5 L1.25,7.5 L1.25,11.25 L2.5,11.25 L2.5,7.5 Z" id="path-2"></path>
    </defs>
    <g id="页面-1" stroke="none" stroke-width="1" fill="none" fill-rule="evenodd">
        <g id="User-Home" transform="translate(-393.000000, -251.000000)">
            <g id="编组-14" transform="translate(402.000000, 256.000000)" filter="url(#filter-1)">
                <g id="bar-chart-2" transform="translate(21.625000, 25.250000)">
                    <mask id="mask-3" fill="white">
                        <use xlink:href="#path-2"></use>
                    </mask>
                    <use id="Combined-Shape" fill="#FFFFFF" fill-rule="nonzero" xlink:href="#path-2"></use>
                    <g id="COLOR/-black" mask="url(#mask-3)" fill="#FFFFFF">
                        <g transform="translate(-0.625000, -1.250000)" id="Rectangle">
                            <rect x="0" y="0" width="15" height="15"></rect>
                        </g>
                    </g>
                </g>
            </g>
        </g>
    </g>
</svg>