<?xml version="1.0" encoding="UTF-8"?>
<svg width="21px" height="21px" viewBox="0 0 21 21" version="1.1" xmlns="http://www.w3.org/2000/svg" xmlns:xlink="http://www.w3.org/1999/xlink">
    <title>settings</title>
    <defs>
        <path d="M10.5,0 C11.9497475,0 13.125,1.17525253 13.125,2.625 L13.124993,2.70026023 C13.1258971,2.92694775 13.2613308,3.1314526 13.4782947,3.22449524 C13.6910038,3.31837224 13.9394349,3.27332704 14.0987816,3.11753157 L14.1509375,3.06537582 C14.6433042,2.57246109 15.3114257,2.29549835 16.008125,2.29549835 C16.7048243,2.29549835 17.3729458,2.57246109 17.8646242,3.0646875 C18.3575389,3.55705417 18.6345016,4.22517572 18.6345016,4.921875 C18.6345016,5.61857428 18.3575389,6.28669583 17.8649684,6.77871843 L17.8192548,6.82435684 C17.656673,6.99056515 17.6116278,7.23899625 17.7055048,7.45170533 C17.7302475,7.50776816 17.7489645,7.56611963 17.7614487,7.62577785 C17.8654553,7.77910529 18.0392951,7.87424853 18.22625,7.875 L18.375,7.875 C19.8247475,7.875 21,9.05025253 21,10.5 C21,11.9497475 19.8247475,13.125 18.375,13.125 L18.2997398,13.124993 C18.0730522,13.1258971 17.8685474,13.2613308 17.7792473,13.46969 C17.6816278,13.6910038 17.726673,13.9394349 17.8824684,14.0987816 L17.9346242,14.1509375 C18.4275389,14.6433042 18.7045016,15.3114257 18.7045016,16.008125 C18.7045016,16.7048243 18.4275389,17.3729458 17.9353125,17.8646242 C17.4429458,18.3575389 16.7748243,18.6345016 16.078125,18.6345016 C15.3814257,18.6345016 14.7133042,18.3575389 14.2212816,17.8649684 L14.1756432,17.8192548 C14.0094349,17.656673 13.7610038,17.6116278 13.53969,17.7092473 C13.3313308,17.7985474 13.1958971,18.0030522 13.195,18.22625 L13.195,18.375 C13.195,19.8247475 12.0197475,21 10.57,21 C9.12025253,21 7.945,19.8247475 7.945,18.375 C7.9397781,18.0832382 7.79214962,17.8768317 7.52170533,17.7755048 C7.30899625,17.6816278 7.06056515,17.726673 6.90121843,17.8824684 L6.8490625,17.9346242 C6.35669583,18.4275389 5.68857428,18.7045016 4.991875,18.7045016 C4.29517572,18.7045016 3.62705417,18.4275389 3.13537582,17.9353125 C2.64246109,17.4429458 2.36549835,16.7748243 2.36549835,16.078125 C2.36549835,15.3814257 2.64246109,14.7133042 3.13503157,14.2212816 L3.18074524,14.1756432 C3.34332704,14.0094349 3.38837224,13.7610038 3.29075265,13.53969 C3.2014526,13.3313308 2.99694775,13.1958971 2.77375,13.195 L2.625,13.195 C1.17525253,13.195 0,12.0197475 0,10.57 C0,9.12025253 1.17525253,7.945 2.625,7.945 C2.9167618,7.9397781 3.12316829,7.79214962 3.22449524,7.52170533 C3.31837224,7.30899625 3.27332704,7.06056515 3.11753157,6.90121843 L3.06537582,6.8490625 C2.57246109,6.35669583 2.29549835,5.68857428 2.29549835,4.991875 C2.29549835,4.29517572 2.57246109,3.62705417 3.0646875,3.13537582 C3.55705417,2.64246109 4.22517572,2.36549835 4.921875,2.36549835 C5.61857428,2.36549835 6.28669583,2.64246109 6.77871843,3.13503157 L6.82435684,3.18074524 C6.99056515,3.34332704 7.23899625,3.38837224 7.45170533,3.29449524 C7.50776816,3.26975248 7.56611963,3.25103547 7.62577785,3.23855127 C7.77910529,3.13454466 7.87424853,2.96070486 7.875,2.77375 L7.875,2.625 C7.875,1.17525253 9.05025253,0 10.5,0 Z M10.5,1.75 C10.0167508,1.75 9.625,2.14175084 9.625,2.625 L9.62499304,2.77723977 C9.62130706,3.70142736 9.06915439,4.5351779 8.21969001,4.89924735 C8.14575241,4.93093605 8.06796837,4.9522056 7.98856269,4.96259933 C7.16162808,5.25248329 6.23405109,5.05133752 5.59378157,4.42496843 L5.5409375,4.37212418 C5.37681528,4.20781926 5.15410809,4.11549835 4.921875,4.11549835 C4.68964191,4.11549835 4.46693472,4.20781926 4.30212418,4.3728125 C4.13781926,4.53693472 4.04549835,4.75964191 4.04549835,4.991875 C4.04549835,5.22410809 4.13781926,5.44681528 4.30246843,5.61128157 L4.36175476,5.67064316 C5.02458825,6.34826164 5.20823406,7.36109613 4.84621909,8.17703345 C4.51756765,9.07062598 3.67606426,9.67249595 2.70375,9.695 L2.625,9.695 C2.14175084,9.695 1.75,10.0867508 1.75,10.57 C1.75,11.0532492 2.14175084,11.445 2.625,11.445 L2.77723977,11.445007 C3.70142736,11.4486929 4.5351779,12.0008456 4.89550476,12.8417053 C5.27823406,13.7089039 5.09458825,14.7217384 4.42496843,15.4062184 L4.37212418,15.4590625 C4.20781926,15.6231847 4.11549835,15.8458919 4.11549835,16.078125 C4.11549835,16.3103581 4.20781926,16.5330653 4.3728125,16.6978758 C4.53693472,16.8621807 4.75964191,16.9545016 4.991875,16.9545016 C5.22410809,16.9545016 5.44681528,16.8621807 5.61128157,16.6975316 L5.67064316,16.6382452 C6.34826164,15.9754118 7.36109613,15.7917659 8.17703345,16.1537809 C9.07062598,16.4824323 9.67249595,17.3239357 9.695,18.29625 L9.695,18.375 C9.695,18.8582492 10.0867508,19.25 10.57,19.25 C11.0532492,19.25 11.445,18.8582492 11.445,18.375 L11.445007,18.2227602 C11.4486929,17.2985726 12.0008456,16.4648221 12.8417053,16.1044952 C13.7089039,15.7217659 14.7217384,15.9054118 15.4062184,16.5750316 L15.4590625,16.6278758 C15.6231847,16.7921807 15.8458919,16.8845016 16.078125,16.8845016 C16.3103581,16.8845016 16.5330653,16.7921807 16.6978758,16.6271875 C16.8621807,16.4630653 16.9545016,16.2403581 16.9545016,16.008125 C16.9545016,15.7758919 16.8621807,15.5531847 16.6975316,15.3887184 L16.6382452,15.3293568 C15.9754118,14.6517384 15.7917659,13.6389039 16.1744952,12.7717053 C16.5348221,11.9308456 17.3685726,11.3786929 18.29625,11.375 L18.375,11.375 C18.8582492,11.375 19.25,10.9832492 19.25,10.5 C19.25,10.0167508 18.8582492,9.625 18.375,9.625 L18.2227602,9.62499304 C17.2985726,9.62130706 16.4648221,9.06915439 16.1007527,8.21969001 C16.069064,8.14575241 16.0477944,8.06796837 16.0374007,7.98856269 C15.7475167,7.16162808 15.9486625,6.23405109 16.5750316,5.59378157 L16.6278758,5.5409375 C16.7921807,5.37681528 16.8845016,5.15410809 16.8845016,4.921875 C16.8845016,4.68964191 16.7921807,4.46693472 16.6271875,4.30212418 C16.4630653,4.13781926 16.2403581,4.04549835 16.008125,4.04549835 C15.7758919,4.04549835 15.5531847,4.13781926 15.3887184,4.30246843 L15.3293568,4.36175476 C14.6517384,5.02458825 13.6389039,5.20823406 12.78031,4.82924735 C11.9308456,4.4651779 11.3786929,3.63142736 11.375,2.70375 L11.375,2.625 C11.375,2.14175084 10.9832492,1.75 10.5,1.75 Z M10.5,7 C12.4329966,7 14,8.56700338 14,10.5 C14,12.4329966 12.4329966,14 10.5,14 C8.56700338,14 7,12.4329966 7,10.5 C7,8.56700338 8.56700338,7 10.5,7 Z M10.5,12.25 C11.4664983,12.25 12.25,11.4664983 12.25,10.5 C12.25,9.53350169 11.4664983,8.75 10.5,8.75 C9.53350169,8.75 8.75,9.53350169 8.75,10.5 C8.75,11.4664983 9.53350169,12.25 10.5,12.25 Z" id="path-1"></path>
    </defs>
    <g id="页面-1" stroke="none" stroke-width="1" fill="none" fill-rule="evenodd">
        <g id="User-Home" transform="translate(-386.000000, -448.000000)">
            <g id="settings" transform="translate(386.000000, 448.000000)">
                <mask id="mask-2" fill="white">
                    <use xlink:href="#path-1"></use>
                </mask>
                <use id="Combined-Shape" fill="#FFFFFF" fill-rule="nonzero" xlink:href="#path-1"></use>
                <g id="COLOR/-black" mask="url(#mask-2)" fill="#FFFFFF">
                    <rect id="Rectangle" x="0" y="0" width="21" height="21"></rect>
                </g>
            </g>
        </g>
    </g>
</svg>