<?xml version="1.0" encoding="UTF-8"?>
<svg width="11px" height="11px" viewBox="0 0 11 11" version="1.1" xmlns="http://www.w3.org/2000/svg" xmlns:xlink="http://www.w3.org/1999/xlink">
    <title>clock</title>
    <defs>
        <path d="M5.04166667,0 C7.82610228,0 10.0833333,2.25723105 10.0833333,5.04166667 C10.0833333,7.82610228 7.82610228,10.0833333 5.04166667,10.0833333 C2.25723105,10.0833333 0,7.82610228 0,5.04166667 C0,2.25723105 2.25723105,0 5.04166667,0 Z M5.04166667,0.916666667 C2.76349207,0.916666667 0.916666667,2.76349207 0.916666667,5.04166667 C0.916666667,7.31984126 2.76349207,9.16666667 5.04166667,9.16666667 C7.31984126,9.16666667 9.16666667,7.31984126 9.16666667,5.04166667 C9.16666667,2.76349207 7.31984126,0.916666667 5.04166667,0.916666667 Z M5.04166667,1.83333333 C5.29479718,1.83333333 5.5,2.03853616 5.5,2.29166667 L5.5,2.29166667 L5.5,4.85181878 L6.74075727,6.09257606 C6.91974758,6.27156636 6.91974758,6.56176697 6.74075727,6.74075727 C6.56176697,6.91974758 6.27156636,6.91974758 6.09257606,6.74075727 L6.09257606,6.74075727 L4.71757606,5.36575727 C4.63162189,5.2798031 4.58333333,5.16322422 4.58333333,5.04166667 L4.58333333,5.04166667 L4.58333333,2.29166667 C4.58333333,2.03853616 4.78853616,1.83333333 5.04166667,1.83333333 Z" id="path-1"></path>
    </defs>
    <g id="页面-1" stroke="none" stroke-width="1" fill="none" fill-rule="evenodd">
        <g id="搜索页" transform="translate(-706.000000, -715.000000)">
            <g id="编组-8" transform="translate(634.000000, 555.000000)">
                <g id="clock" transform="translate(72.458333, 160.458333)">
                    <mask id="mask-2" fill="white">
                        <use xlink:href="#path-1"></use>
                    </mask>
                    <use id="Combined-Shape" fill="#5E6269" fill-rule="nonzero" xlink:href="#path-1"></use>
                    <g id="COLOR/-black" mask="url(#mask-2)" fill="#5E6269">
                        <g transform="translate(-0.458333, -0.458333)" id="Rectangle">
                            <rect x="0" y="0" width="11" height="11"></rect>
                        </g>
                    </g>
                </g>
            </g>
        </g>
    </g>
</svg>