<?xml version="1.0" encoding="UTF-8"?>
<svg width="17px" height="17px" viewBox="0 0 17 17" version="1.1" xmlns="http://www.w3.org/2000/svg" xmlns:xlink="http://www.w3.org/1999/xlink">
    <title>crosshair</title>
    <defs>
        <path d="M7.79166667,-1.77635684e-15 C12.0948853,-1.77635684e-15 15.5833333,3.48844799 15.5833333,7.79166667 C15.5833333,12.0948853 12.0948853,15.5833333 7.79166667,15.5833333 C3.48844799,15.5833333 0,12.0948853 0,7.79166667 C0,3.48844799 3.48844799,-1.77635684e-15 7.79166667,-1.77635684e-15 Z M1.45552589,7.08377365 L3.54166667,7.08333333 C3.93286836,7.08333333 4.25,7.40046497 4.25,7.79166667 C4.25,8.18286836 3.93286836,8.5 3.54166667,8.5 L3.54166667,8.5 L1.45563697,8.50056439 C1.78253663,11.4553406 4.12885945,13.8013656 7.08377365,14.1278074 L7.08333333,12.0416667 C7.08333333,11.650465 7.40046497,11.3333333 7.79166667,11.3333333 C8.18286836,11.3333333 8.5,11.650465 8.5,12.0416667 L8.5,12.0416667 L8.50056439,14.1276964 C11.4550057,13.8008338 13.8008338,11.4550057 14.1276964,8.50056439 L12.0416667,8.5 C11.650465,8.5 11.3333333,8.18286836 11.3333333,7.79166667 C11.3333333,7.40046497 11.650465,7.08333333 12.0416667,7.08333333 L12.0416667,7.08333333 L14.1278074,7.08377365 C13.8013656,4.12885945 11.4553406,1.78253663 8.50056439,1.45563697 L8.5,3.54166667 C8.5,3.93286836 8.18286836,4.25 7.79166667,4.25 C7.40046497,4.25 7.08333333,3.93286836 7.08333333,3.54166667 L7.08333333,3.54166667 L7.08377365,1.45552589 C4.12852454,1.78200477 1.78200477,4.12852454 1.45552589,7.08377365 Z" id="path-1"></path>
    </defs>
    <g id="é¡µé¢-1" stroke="none" stroke-width="1" fill="none" fill-rule="evenodd">
        <g id="User-Home" transform="translate(-48.000000, -599.000000)">
            <g id="ç¼–ç»„-11" transform="translate(32.000000, 503.000000)">
                <g id="ç¼–ç»„-7" transform="translate(0.000000, 84.000000)">
                    <g id="crosshair" transform="translate(16.708333, 12.708333)">
                        <mask id="mask-2" fill="white">
                            <use xlink:href="#path-1"></use>
                        </mask>
                        <use id="Combined-Shape" fill="#FFCD34" fill-rule="nonzero" xlink:href="#path-1"></use>
                        <g id="ðŸŽ¨Color" mask="url(#mask-2)" fill="#FFCD34">
                            <g transform="translate(-0.708333, -0.708333)" id="Rectangle">
                                <rect x="0" y="0" width="17" height="17"></rect>
                            </g>
                        </g>
                    </g>
                </g>
            </g>
        </g>
    </g>
</svg>