<?xml version="1.0" encoding="UTF-8"?>
<svg width="14px" height="16px" viewBox="0 0 14 16" version="1.1" xmlns="http://www.w3.org/2000/svg" xmlns:xlink="http://www.w3.org/1999/xlink">
    <title>log-out</title>
    <defs>
        <path d="M5.33333333,-1.77635684e-15 C5.70152317,-1.77635684e-15 6,0.298476833 6,0.666666667 C6,1.0013847 5.75332493,1.27848868 5.43184845,1.32610495 L5.33333333,1.33333333 L2,1.33333333 C1.66528197,1.33333333 1.38817799,1.5800084 1.34056171,1.90148489 L1.33333333,2 L1.33333333,12.6666667 C1.33333333,13.0013847 1.5800084,13.2784887 1.90148489,13.326105 L2,13.3333333 L5.33333333,13.3333333 C5.70152317,13.3333333 6,13.6318102 6,14 C6,14.334718 5.75332493,14.611822 5.43184845,14.6594383 L5.33333333,14.6666667 L2,14.6666667 C0.945638205,14.6666667 0.0818348781,13.8507889 0.00548573643,12.815929 L0,12.6666667 L0,2 C0,0.945638205 0.815877791,0.0818348781 1.85073766,0.00548573643 L2,-1.77635684e-15 L5.33333333,-1.77635684e-15 Z M9.52859548,4.19526215 C9.78894501,3.93491262 10.211055,3.93491262 10.4714045,4.19526215 L10.4714045,4.19526215 L13.1380712,6.86192881 C13.144031,6.86788862 13.1498544,6.8739332 13.1555413,6.88005866 C13.1670769,6.89249862 13.1782244,6.90547162 13.1888677,6.9188634 C13.2000617,6.93287018 13.2106328,6.9473225 13.2205499,6.96208365 C13.2269437,6.97170302 13.233206,6.98157265 13.2392117,6.99161345 C13.2503116,7.01009456 13.2602151,7.028661 13.2691793,7.047562 C13.3102209,7.13381878 13.3333333,7.23087696 13.3333333,7.33333333 C13.3333333,7.40215738 13.3229042,7.46854557 13.3035401,7.53100377 C13.2995302,7.54384804 13.2950012,7.55703916 13.2900468,7.57010586 C13.2833162,7.58783681 13.2759637,7.60493653 13.2679349,7.62164981 C13.2604656,7.63727293 13.2524735,7.65240174 13.2438594,7.66726894 C13.2364255,7.67998479 13.2285899,7.6925188 13.2203587,7.70476477 C13.1967053,7.74004758 13.1692559,7.77355313 13.1380712,7.80473785 L13.1859724,7.75142049 C13.1762756,7.76344956 13.1661695,7.77513478 13.1556751,7.78645496 L13.1380712,7.80473785 L10.4714045,10.4714045 C10.211055,10.731754 9.78894501,10.731754 9.52859548,10.4714045 C9.26824595,10.211055 9.26824595,9.78894501 9.52859548,9.52859548 L9.52859548,9.52859548 L11.056,8 L4.66666667,8 C4.29847683,8 4,7.70152317 4,7.33333333 C4,6.9986153 4.24667507,6.72151132 4.56815155,6.67389505 L4.66666667,6.66666667 L11.056,6.666 L9.52859548,5.13807119 C9.2942809,4.90375661 9.27084945,4.53841607 9.45830111,4.2778963 Z" id="path-1"></path>
    </defs>
    <g id="页面-1" stroke="none" stroke-width="1" fill="none" fill-rule="evenodd">
        <g id="User-Home" transform="translate(-187.000000, -259.000000)">
            <g id="编组-6" transform="translate(177.000000, 250.000000)">
                <g id="log-out" transform="translate(10.333333, 9.666667)">
                    <mask id="mask-2" fill="white">
                        <use xlink:href="#path-1"></use>
                    </mask>
                    <use id="Combined-Shape" fill="#9282B6" fill-rule="nonzero" xlink:href="#path-1"></use>
                    <g id="COLOR/-black" mask="url(#mask-2)" fill="#9282B6">
                        <g transform="translate(-1.333333, -0.666667)" id="Rectangle">
                            <rect x="0" y="0" width="16" height="16"></rect>
                        </g>
                    </g>
                </g>
            </g>
        </g>
    </g>
</svg>