<?xml version="1.0" encoding="UTF-8"?>
<svg width="16px" height="16px" viewBox="0 0 16 16" version="1.1" xmlns="http://www.w3.org/2000/svg" xmlns:xlink="http://www.w3.org/1999/xlink">
    <title>settings</title>
    <defs>
        <path d="M8,0 C9.1045695,0 10,0.8954305 10,2 L10,2.05734113 C10.0006835,2.23005543 10.1038711,2.38586865 10.2691769,2.45675828 C10.431241,2.52828361 10.6205218,2.49396346 10.7419288,2.37526215 L10.7816667,2.33552444 C11.1568032,1.95997035 11.6658482,1.74895112 12.1966667,1.74895112 C12.7274852,1.74895112 13.2365302,1.95997035 13.6111422,2.335 C13.9866963,2.71013651 14.1977155,3.2191815 14.1977155,3.75 C14.1977155,4.2808185 13.9866963,4.78986349 13.6114045,5.16473785 L13.5765751,5.19950997 C13.4527032,5.32614487 13.4183831,5.51542571 13.4899084,5.67748977 C13.50876,5.72020431 13.5230206,5.76466258 13.5325324,5.81011646 C13.6117755,5.92693737 13.7442249,5.99942745 13.8866667,6 L14,6 C15.1045695,6 16,6.8954305 16,8 C16,9.1045695 15.1045695,10 14,10 L13.9426589,10 C13.7699446,10.0006835 13.6141314,10.1038711 13.5460932,10.262621 C13.4717164,10.431241 13.5060365,10.6205218 13.6247379,10.7419288 L13.6644756,10.7816667 C14.0400296,11.1568032 14.2510489,11.6658482 14.2510489,12.1966667 C14.2510489,12.7274852 14.0400296,13.2365302 13.665,13.6111422 C13.2898635,13.9866963 12.7808185,14.1977155 12.25,14.1977155 C11.7191815,14.1977155 11.2101365,13.9866963 10.8352621,13.6114045 L10.80049,13.5765751 C10.6738551,13.4527032 10.4845743,13.4183831 10.3159543,13.4927599 C10.1572044,13.560798 10.0540169,13.7166112 10.0533333,13.8866667 L10.0533333,14 C10.0533333,15.1045695 9.15790283,16 8.05333333,16 C6.94876383,16 6.05333333,15.1045695 6.05333333,14 C6.04935475,13.7777053 5.9368759,13.6204432 5.73082311,13.5432417 C5.56875905,13.4717164 5.37947821,13.5060365 5.25807119,13.6247379 L5.21833333,13.6644756 C4.84319682,14.0400296 4.33415183,14.2510489 3.80333333,14.2510489 C3.27251484,14.2510489 2.76346985,14.0400296 2.38885777,13.665 C2.01330368,13.2898635 1.80228446,12.7808185 1.80228446,12.25 C1.80228446,11.7191815 2.01330368,11.2101365 2.38859548,10.8352621 L2.42342494,10.80049 C2.54729679,10.6738551 2.58161694,10.4845743 2.50724012,10.3159543 C2.43920198,10.1572044 2.28338876,10.0540169 2.11333333,10.0533333 L2,10.0533333 C0.8954305,10.0533333 0,9.15790283 0,8.05333333 C0,6.94876383 0.8954305,6.05333333 2,6.05333333 C2.22229471,6.04935475 2.37955679,5.9368759 2.45675828,5.73082311 C2.52828361,5.56875905 2.49396346,5.37947821 2.37526215,5.25807119 L2.33552444,5.21833333 C1.95997035,4.84319682 1.74895112,4.33415183 1.74895112,3.80333333 C1.74895112,3.27251484 1.95997035,2.76346985 2.335,2.38885777 C2.71013651,2.01330368 3.2191815,1.80228446 3.75,1.80228446 C4.2808185,1.80228446 4.78986349,2.01330368 5.16473785,2.38859548 L5.19950997,2.42342494 C5.32614487,2.54729679 5.51542571,2.58161694 5.67748977,2.51009161 C5.72020431,2.49123998 5.76466258,2.47697941 5.81011646,2.46746764 C5.92693737,2.3882245 5.99942745,2.25577513 6,2.11333333 L6,2 C6,0.8954305 6.8954305,0 8,0 Z M8,1.33333333 C7.63181017,1.33333333 7.33333333,1.63181017 7.33333333,2 L7.33333333,2.11599221 C7.33051967,2.82013513 6.90983191,3.45537364 6.26262096,3.73275988 C6.20628755,3.75690365 6.14702352,3.77310903 6.08652395,3.78102806 C5.45647854,4.00189203 4.74975321,3.84863811 4.26192881,3.37140452 L4.22166667,3.33114223 C4.09662116,3.20595753 3.9269395,3.13561779 3.75,3.13561779 C3.5730605,3.13561779 3.40337884,3.20595753 3.2778089,3.33166667 C3.1526242,3.45671217 3.08228446,3.62639383 3.08228446,3.80333333 C3.08228446,3.98027283 3.1526242,4.1499545 3.27807119,4.27526215 L3.32324172,4.32049003 C3.82825771,4.83677077 3.96817833,5.60845419 3.6923574,6.23012073 C3.44195631,6.91095313 2.80081086,7.36952073 2.06,7.38666667 L2,7.38666667 C1.63181017,7.38666667 1.33333333,7.6851435 1.33333333,8.05333333 C1.33333333,8.42152317 1.63181017,8.72 2,8.72 L2.11599221,8.7200053 C2.82013513,8.72281367 3.45537364,9.14350142 3.72990839,9.78415644 C4.02151167,10.4448791 3.88159105,11.2165626 3.37140452,11.7380712 L3.33114223,11.7783333 C3.20595753,11.9033788 3.13561779,12.0730605 3.13561779,12.25 C3.13561779,12.4269395 3.20595753,12.5966212 3.33166667,12.7221911 C3.45671217,12.8473758 3.62639383,12.9177155 3.80333333,12.9177155 C3.98027283,12.9177155 4.1499545,12.8473758 4.27526215,12.7219288 L4.32049003,12.6767583 C4.83677077,12.1717423 5.60845419,12.0318217 6.23012073,12.3076426 C6.91095313,12.5580437 7.36952073,13.1991891 7.38666667,13.94 L7.38666667,14 C7.38666667,14.3681898 7.6851435,14.6666667 8.05333333,14.6666667 C8.42152317,14.6666667 8.72,14.3681898 8.72,14 L8.7200053,13.8840078 C8.72281367,13.1798649 9.14350142,12.5446264 9.78415644,12.2700916 C10.4448791,11.9784883 11.2165626,12.118409 11.7380712,12.6285955 L11.7783333,12.6688578 C11.9033788,12.7940425 12.0730605,12.8643822 12.25,12.8643822 C12.4269395,12.8643822 12.5966212,12.7940425 12.7221911,12.6683333 C12.8473758,12.5432878 12.9177155,12.3736062 12.9177155,12.1966667 C12.9177155,12.0197272 12.8473758,11.8500455 12.7219288,11.7247379 L12.6767583,11.67951 C12.1717423,11.1632292 12.0318217,10.3915458 12.3234249,9.73082311 C12.5979597,9.09016809 13.2331982,8.66948033 13.94,8.66666667 L14,8.66666667 C14.3681898,8.66666667 14.6666667,8.36818983 14.6666667,8 C14.6666667,7.63181017 14.3681898,7.33333333 14,7.33333333 L13.8840078,7.33333333 C13.1798649,7.33051967 12.5446264,6.90983191 12.2672401,6.26262096 C12.2430963,6.20628755 12.226891,6.14702352 12.2189719,6.08652395 C11.998108,5.45647854 12.1513619,4.74975321 12.6285955,4.26192881 L12.6688578,4.22166667 C12.7940425,4.09662116 12.8643822,3.9269395 12.8643822,3.75 C12.8643822,3.5730605 12.7940425,3.40337884 12.6683333,3.2778089 C12.5432878,3.1526242 12.3736062,3.08228446 12.1966667,3.08228446 C12.0197272,3.08228446 11.8500455,3.1526242 11.7247379,3.27807119 L11.67951,3.32324172 C11.1632292,3.82825771 10.3915458,3.96817833 9.73737904,3.67942655 C9.09016809,3.40204031 8.66948033,2.7668018 8.66666667,2.06 L8.66666667,2 C8.66666667,1.63181017 8.36818983,1.33333333 8,1.33333333 Z M8,5.33333333 C9.47275933,5.33333333 10.6666667,6.52724067 10.6666667,8 C10.6666667,9.47275933 9.47275933,10.6666667 8,10.6666667 C6.52724067,10.6666667 5.33333333,9.47275933 5.33333333,8 C5.33333333,6.52724067 6.52724067,5.33333333 8,5.33333333 Z M8,9.33333333 C8.73637967,9.33333333 9.33333333,8.73637967 9.33333333,8 C9.33333333,7.26362033 8.73637967,6.66666667 8,6.66666667 C7.26362033,6.66666667 6.66666667,7.26362033 6.66666667,8 C6.66666667,8.73637967 7.26362033,9.33333333 8,9.33333333 Z" id="path-1"></path>
    </defs>
    <g id="页面-1" stroke="none" stroke-width="1" fill="none" fill-rule="evenodd">
        <g id="User-Home" transform="translate(-127.000000, -259.000000)">
            <g id="编组-5" transform="translate(118.000000, 250.000000)">
                <g id="settings" transform="translate(9.000000, 9.000000)">
                    <mask id="mask-2" fill="white">
                        <use xlink:href="#path-1"></use>
                    </mask>
                    <use id="Combined-Shape" fill="#9282B6" fill-rule="nonzero" xlink:href="#path-1"></use>
                    <g id="COLOR/-black" mask="url(#mask-2)" fill="#9282B6">
                        <rect id="Rectangle" x="0" y="0" width="16" height="16"></rect>
                    </g>
                </g>
            </g>
        </g>
    </g>
</svg>