<?xml version="1.0" encoding="UTF-8"?>
<svg width="131px" height="136px" viewBox="0 0 131 136" version="1.1" xmlns="http://www.w3.org/2000/svg" xmlns:xlink="http://www.w3.org/1999/xlink">
    <title>bar-chart-2</title>
    <defs>
        <filter x="-23.8%" y="-51.9%" width="147.5%" height="203.8%" filterUnits="objectBoundingBox" id="filter-1">
            <feOffset dx="0" dy="0" in="SourceAlpha" result="shadowOffsetOuter1"></feOffset>
            <feGaussianBlur stdDeviation="17.5" in="shadowOffsetOuter1" result="shadowBlurOuter1"></feGaussianBlur>
            <feColorMatrix values="0 0 0 0 0.850980392   0 0 0 0 0.698039216   0 0 0 0 0.97254902  0 0 0 0.5 0" type="matrix" in="shadowBlurOuter1" result="shadowMatrixOuter1"></feColorMatrix>
            <feMerge>
                <feMergeNode in="shadowMatrixOuter1"></feMergeNode>
                <feMergeNode in="SourceGraphic"></feMergeNode>
            </feMerge>
        </filter>
        <path d="M35.4166667,7.08333333 L35.4166667,63.75 L42.5,63.75 L42.5,7.08333333 L35.4166667,7.08333333 Z M46.0416667,3.55271368e-15 C47.9976752,3.55271368e-15 49.5833333,1.58565818 49.5833333,3.54166667 L49.5833333,67.2916667 C49.5833333,69.2476752 47.9976752,70.8333333 46.0416667,70.8333333 L31.875,70.8333333 C29.9189915,70.8333333 28.3333333,69.2476752 28.3333333,67.2916667 L28.3333333,3.54166667 C28.3333333,1.58565818 29.9189915,3.55271368e-15 31.875,3.55271368e-15 L46.0416667,3.55271368e-15 Z M74.375,17.7083333 C76.3310085,17.7083333 77.9166667,19.2939915 77.9166667,21.25 L77.9166667,67.2916667 C77.9166667,69.2476752 76.3310085,70.8333333 74.375,70.8333333 L60.2083333,70.8333333 C58.2523248,70.8333333 56.6666667,69.2476752 56.6666667,67.2916667 L56.6666667,21.25 C56.6666667,19.2939915 58.2523248,17.7083333 60.2083333,17.7083333 L74.375,17.7083333 Z M17.7083333,35.4166667 C19.6643418,35.4166667 21.25,37.0023248 21.25,38.9583333 L21.25,67.2916667 C21.25,69.2476752 19.6643418,70.8333333 17.7083333,70.8333333 L3.54166667,70.8333333 C1.58565818,70.8333333 -2.84217094e-14,69.2476752 -2.84217094e-14,67.2916667 L-2.84217094e-14,38.9583333 C-2.84217094e-14,37.0023248 1.58565818,35.4166667 3.54166667,35.4166667 L17.7083333,35.4166667 Z M14.1666667,42.5 L7.08333333,42.5 L7.08333333,63.75 L14.1666667,63.75 L14.1666667,42.5 Z M70.8333333,24.7916667 L63.75,24.7916667 L63.75,63.75 L70.8333333,63.75 L70.8333333,24.7916667 Z" id="path-2"></path>
    </defs>
    <g id="页面-1" stroke="none" stroke-width="1" fill="none" fill-rule="evenodd" opacity="0.35">
        <g id="User-Home" transform="translate(-584.000000, -238.000000)">
            <g id="编组-14" transform="translate(402.000000, 256.000000)" filter="url(#filter-1)">
                <g id="bar-chart-2" transform="translate(215.541667, 14.083333)">
                    <mask id="mask-3" fill="white">
                        <use xlink:href="#path-2"></use>
                    </mask>
                    <use id="Combined-Shape" fill="#FFFFFF" fill-rule="nonzero" xlink:href="#path-2"></use>
                    <g id="COLOR/-black" mask="url(#mask-3)" fill="#FFFFFF">
                        <g transform="translate(-3.541667, -7.083333)" id="Rectangle">
                            <rect x="0" y="0" width="85" height="85"></rect>
                        </g>
                    </g>
                </g>
            </g>
        </g>
    </g>
</svg>