<?xml version="1.0" encoding="UTF-8"?>
<svg width="17px" height="17px" viewBox="0 0 17 17" version="1.1" xmlns="http://www.w3.org/2000/svg" xmlns:xlink="http://www.w3.org/1999/xlink">
    <title>refresh-cw</title>
    <defs>
        <path d="M16.2438073,9.6602002 C16.2759783,9.74313169 16.2918814,9.83076829 16.2916688,9.91827953 L16.2916688,14.1666667 C16.2916688,14.5578684 15.974535,14.875 15.5833333,14.875 C15.1921316,14.875 14.875,14.5578684 14.875,14.1666667 L14.875,11.5540627 L12.7976595,13.5057425 C11.0783305,15.2259328 8.59669681,15.9437476 6.22455179,15.4070201 C3.85240677,14.8702925 1.92150149,13.1540853 1.11015946,10.8612989 C0.979656051,10.4925069 1.17282721,10.0877481 1.54161933,9.95724469 C1.91041145,9.82674132 2.31517046,10.0199124 2.44567387,10.3887044 C3.09474749,12.2229335 4.63947171,13.5958993 6.53718773,14.0252813 C8.43490374,14.4546634 10.4202107,13.8804115 11.8116166,12.488801 L13.7951118,10.625 L11.3333333,10.625 C10.9421316,10.625 10.625,10.3078684 10.625,9.91666667 C10.625,9.52546497 10.9421316,9.20833333 11.3333333,9.20833333 L15.5833333,9.20833333 C15.8806965,9.20833333 16.1352625,9.39157004 16.2402793,9.65129155 L16.2438073,9.6602002 Z M0.047861518,5.92159144 C0.0156904915,5.83865996 -0.000212539156,5.75102336 0,5.66351211 L0,1.41512498 C0,1.02392328 0.31713378,0.706791647 0.708335478,0.706791647 C1.09953718,0.706791647 1.41666881,1.02392328 1.41666881,1.41512498 L1.41666881,4.02772892 L3.49400935,2.07604917 C5.21333831,0.355858891 7.694972,-0.361955988 10.067117,0.174771593 C12.439262,0.711499175 14.3701673,2.42770637 15.1815093,4.72049273 C15.3120128,5.08928472 15.1188416,5.49404359 14.7500495,5.62454696 C14.3812574,5.75505033 13.9764984,5.56187923 13.8459949,5.19308723 C13.1969213,3.35885815 11.6521971,1.98589239 9.75448108,1.55651033 C7.85676507,1.12712826 5.87145811,1.70138017 4.48005223,3.09299069 L2.49655697,4.95679165 L4.95833548,4.95679165 C5.34953718,4.95679165 5.66666881,5.27392328 5.66666881,5.66512498 C5.66666881,6.05632668 5.34953718,6.37345831 4.95833548,6.37345831 L0.708335478,6.37345831 C0.410972299,6.37345831 0.156406347,6.1902216 0.0513895396,5.9305001 L0.047861518,5.92159144 Z" id="path-1"></path>
    </defs>
    <g id="页面-1" stroke="none" stroke-width="1" fill="none" fill-rule="evenodd">
        <g id="User-Home" transform="translate(-1105.000000, -750.000000)">
            <g id="refresh-cw" transform="translate(1105.000000, 750.708333)">
                <mask id="mask-2" fill="white">
                    <use xlink:href="#path-1"></use>
                </mask>
                <use id="Combined-Shape" fill="#716F6F" transform="translate(8.145834, 7.790896) scale(-1, 1) translate(-8.145834, -7.790896) " xlink:href="#path-1"></use>
            </g>
        </g>
    </g>
</svg>